<?xml version="1.0" standalone="no"?>
<!DOCTYPE svg PUBLIC "-//W3C//DTD SVG 20010904//EN"
 "http://www.w3.org/TR/2001/REC-SVG-20010904/DTD/svg10.dtd">
<svg version="1.0" xmlns="http://www.w3.org/2000/svg"
 width="512.000000pt" height="512.000000pt" viewBox="0 0 512.000000 512.000000"
 preserveAspectRatio="xMidYMid meet">
<metadata>
Created by potrace 1.14, written by Peter Selinger 2001-2017
</metadata>
<g transform="translate(0.000000,512.000000) scale(0.100000,-0.100000)"
fill="#000000" stroke="none">
<path d="M1330 5109 c-46 -18 -92 -61 -111 -103 -14 -31 -19 -65 -19 -142 l0
-101 -152 1 -153 1 -1 73 c-1 39 -2 78 -3 86 -1 13 -38 14 -238 13 -207 -2
-245 -5 -288 -22 -94 -36 -175 -101 -221 -181 -58 -98 -54 29 -55 -2205 0
-1539 3 -2068 11 -2100 19 -71 58 -138 110 -189 54 -53 152 -106 215 -115 29
-4 2271 -9 2473 -5 21 0 23 5 22 37 -1 21 -2 59 -1 86 l1 47 253 0 253 0 34
-35 c62 -64 194 -146 315 -196 140 -58 398 -72 555 -30 413 110 691 462 699
884 3 162 -25 287 -97 437 -130 270 -378 452 -702 517 -47 10 -275 5 -302 -5
-15 -6 -29 -8 -31 -4 -3 4 -5 69 -5 145 -1 122 1 137 16 138 9 1 49 1 89 2
l72 0 0 1213 c0 1297 1 1265 -49 1363 -36 72 -108 139 -189 178 l-76 37 -230
1 -230 0 -3 -86 -3 -86 -160 0 c-107 0 -162 3 -166 11 -4 6 -8 54 -8 106 -2
131 -28 178 -120 221 -38 18 -80 19 -760 18 -449 0 -729 -4 -745 -10z"/>
</g>
</svg>
